{"glyphs":{"0":{"ha":1340,"x_min":0,"x_max":0,"o":"m 669 -22 b 1285 486 1050 -22 1285 181 b 669 994 1285 792 1050 994 b 56 486 290 994 56 792 b 669 -22 56 181 290 -22 z m 669 217 b 336 486 458 217 336 308 b 669 756 336 664 458 756 b 1004 486 882 756 1004 664 b 669 217 1004 308 882 217 z "},"1":{"ha":893,"x_min":0,"x_max":0,"o":"m 501 0 l 782 0 l 782 972 l 585 972 l 14 725 l 14 446 l 501 749 z "},"2":{"ha":1169,"x_min":0,"x_max":0,"o":"m 69 0 l 1086 0 l 1086 239 l 386 239 b 1128 703 513 383 1128 299 b 607 993 1128 935 951 993 b 111 944 439 993 193 971 l 111 694 b 568 749 168 717 428 749 b 818 644 732 749 818 724 b 69 165 818 513 69 540 z "},"3":{"ha":1122,"x_min":0,"x_max":0,"o":"m 508 -22 b 1081 260 844 -25 1081 24 b 636 488 1081 496 779 488 l 636 493 b 1053 729 806 493 1053 490 b 507 996 1053 963 803 996 b 42 933 374 996 158 976 l 42 676 b 493 757 138 715 356 757 b 785 669 610 757 785 738 b 261 582 785 621 746 599 l 261 393 b 813 289 686 379 813 356 b 494 217 813 236 686 217 b 42 296 356 217 136 256 l 42 39 b 508 -22 156 -3 343 -21 z "},"4":{"ha":1192,"x_min":0,"x_max":0,"o":"m 767 0 l 1047 0 l 1047 151 l 1171 151 l 1171 390 l 1047 390 l 1047 972 l 628 972 l 14 338 l 14 151 l 767 151 z m 388 390 l 767 796 l 767 390 z "},"5":{"ha":1114,"x_min":0,"x_max":0,"o":"m 482 -22 b 1058 314 824 -22 1058 99 b 621 631 1058 582 832 631 b 297 590 503 631 396 624 l 315 733 l 1006 733 l 1006 972 l 110 972 l 68 469 l 182 360 b 518 429 275 399 390 429 b 778 325 708 429 778 403 b 478 219 778 250 657 219 b 42 289 346 219 117 254 l 42 35 b 482 -22 132 -1 358 -22 z "},"6":{"ha":1189,"x_min":0,"x_max":0,"o":"m 625 -17 b 1133 308 949 -17 1133 113 b 690 639 1133 497 997 639 b 336 542 558 639 426 593 b 671 753 336 667 464 753 b 1058 656 851 753 971 704 l 1058 913 b 665 993 954 964 836 993 b 56 503 304 993 56 825 b 625 -17 56 149 285 -17 z m 613 222 b 361 375 482 222 399 286 b 656 438 439 410 556 438 b 851 329 782 438 851 397 b 613 222 851 256 746 222 z "},"7":{"ha":1153,"x_min":0,"x_max":0,"o":"m 85 0 l 476 0 l 1139 849 l 1139 972 l 14 972 l 14 733 l 699 733 z "},"8":{"ha":1203,"x_min":0,"x_max":0,"o":"m 42 254 b 601 -28 42 72 260 -32 b 1161 254 924 -32 1161 74 b 847 476 1161 411 982 460 l 847 481 b 1133 724 971 504 1133 565 b 601 990 1133 904 889 990 b 69 724 279 990 69 897 b 356 481 69 565 232 504 l 356 476 b 42 254 221 460 42 411 z m 351 682 b 601 765 351 750 485 765 b 851 682 718 765 851 750 b 601 594 851 646 844 594 b 351 682 344 594 351 646 z m 324 278 b 601 363 324 326 347 363 b 879 278 856 363 879 326 b 600 197 879 224 789 197 b 324 278 408 197 324 225 z "},"9":{"ha":1189,"x_min":0,"x_max":0,"o":"m 564 992 b 56 667 240 992 56 863 b 499 336 56 478 192 336 b 853 433 631 336 763 382 b 518 222 853 308 725 222 b 131 319 338 222 218 271 l 131 63 b 524 -18 235 11 353 -18 b 1133 472 885 -18 1133 150 b 564 992 1133 826 904 992 z m 576 753 b 828 600 707 753 790 689 b 533 538 750 565 633 538 b 338 646 407 538 338 578 b 576 753 338 719 443 753 z "}," ":{"ha":417,"x_min":0,"x_max":0,"o":""},"A":{"ha":1535,"x_min":0,"x_max":0,"o":"m 35 0 l 367 0 l 458 164 l 1076 164 l 1168 0 l 1500 0 l 918 972 l 617 972 z m 592 403 l 768 719 l 943 403 z "},"B":{"ha":1286,"x_min":0,"x_max":0,"o":"m 111 0 l 885 0 b 1199 265 1074 0 1199 110 b 883 503 1199 410 1090 492 l 883 514 b 1167 722 1072 529 1167 586 b 854 972 1167 871 1056 972 l 111 972 z m 393 603 l 392 733 l 806 733 b 886 668 851 733 886 719 b 806 603 886 617 851 603 z m 394 240 l 393 406 l 822 406 b 917 324 889 406 917 378 b 822 240 917 268 889 240 z "},"C":{"ha":1297,"x_min":0,"x_max":0,"o":"m 656 -22 b 1242 424 1010 -22 1242 154 l 958 424 b 656 217 949 299 829 217 b 350 486 471 217 350 324 b 656 756 350 649 471 756 b 958 549 828 756 947 674 l 1242 549 b 656 994 1242 818 1010 994 b 69 486 301 994 69 793 b 656 -22 69 179 301 -22 z "},"D":{"ha":1201,"x_min":0,"x_max":0,"o":"m 111 0 l 579 0 b 1146 486 929 0 1146 164 b 579 972 1146 804 931 972 l 111 972 z m 392 239 l 392 733 l 579 733 b 865 486 769 733 865 660 b 579 239 865 317 774 239 z "},"E":{"ha":1188,"x_min":0,"x_max":0,"o":"m 111 0 l 1090 0 l 1090 239 l 392 239 l 392 394 l 1008 394 l 1008 621 l 392 621 l 392 733 l 1090 733 l 1090 972 l 111 972 z "},"F":{"ha":1090,"x_min":0,"x_max":0,"o":"m 111 0 l 392 0 l 392 408 l 967 408 l 967 635 l 392 635 l 392 733 l 1035 733 l 1035 972 l 111 972 z "},"G":{"ha":1325,"x_min":0,"x_max":0,"o":"m 69 486 b 642 -22 69 179 296 -22 b 1040 208 835 -22 975 69 l 1054 208 l 1053 0 l 1256 0 l 1256 546 l 510 546 l 510 351 l 957 351 b 656 217 926 269 807 217 b 350 486 471 217 350 324 b 669 756 350 649 476 756 b 947 617 838 756 947 700 l 1240 617 b 656 994 1240 844 1008 994 b 69 486 301 994 69 793 z "},"H":{"ha":1354,"x_min":0,"x_max":0,"o":"m 111 0 l 392 0 l 392 401 l 963 401 l 963 0 l 1243 0 l 1243 972 l 963 972 l 963 642 l 392 642 l 392 972 l 111 972 z "},"I":{"ha":503,"x_min":0,"x_max":0,"o":"m 111 0 l 392 0 l 392 972 l 111 972 z "},"J":{"ha":1132,"x_min":0,"x_max":0,"o":"m 546 -22 b 1021 471 831 -22 1021 110 l 1021 972 l 199 972 l 199 733 l 740 733 l 740 471 b 546 217 740 279 663 217 b 351 471 429 217 351 279 l 69 471 b 546 -22 69 110 260 -22 z "},"K":{"ha":1378,"x_min":0,"x_max":0,"o":"m 111 0 l 392 0 l 392 201 l 640 408 l 946 0 l 1336 0 l 875 604 l 1292 972 l 889 972 l 392 542 l 392 972 l 111 972 z "},"L":{"ha":1049,"x_min":0,"x_max":0,"o":"m 111 0 l 1007 0 l 1007 239 l 392 239 l 392 972 l 111 972 z "},"M":{"ha":1447,"x_min":0,"x_max":0,"o":"m 111 0 l 392 0 l 392 464 l 694 0 l 753 0 l 1056 464 l 1056 0 l 1336 0 l 1336 972 l 1113 972 l 724 393 l 335 972 l 111 972 z "},"N":{"ha":1358,"x_min":0,"x_max":0,"o":"m 111 0 l 392 0 l 392 536 l 1025 0 l 1247 0 l 1247 972 l 967 972 l 967 436 l 332 972 l 111 972 z "},"O":{"ha":1283,"x_min":0,"x_max":0,"o":"m 642 -22 b 1228 486 996 -22 1228 179 b 642 994 1228 793 996 994 b 56 486 288 994 56 793 b 642 -22 56 179 288 -22 z m 642 217 b 336 486 457 217 336 324 b 642 756 336 649 457 756 b 947 486 826 756 947 649 b 642 217 947 324 826 217 z "},"P":{"ha":1208,"x_min":0,"x_max":0,"o":"m 111 0 l 392 0 l 392 379 l 826 379 b 1153 675 1014 379 1153 478 b 826 972 1153 838 1028 972 l 111 972 z m 390 604 l 390 747 l 792 747 b 872 675 843 747 872 726 b 792 604 872 624 843 604 z "},"Q":{"ha":1283,"x_min":0,"x_max":0,"o":"m 1314 201 l 1188 279 b 1228 486 1214 340 1228 410 b 642 994 1228 793 996 994 b 56 486 288 994 56 793 b 642 -22 56 179 288 -22 b 1004 71 785 -22 908 11 l 1165 -36 z m 642 217 b 336 486 457 217 336 324 b 642 756 336 649 457 756 b 947 486 826 756 947 649 b 942 429 947 467 946 447 l 724 563 l 589 347 l 760 233 b 642 217 725 222 685 217 z "},"R":{"ha":1307,"x_min":0,"x_max":0,"o":"m 111 0 l 392 0 l 390 392 l 571 392 b 951 0 724 392 771 324 l 1293 0 b 796 467 1139 317 1035 451 l 796 469 l 896 471 b 1208 715 1083 471 1208 560 b 896 972 1208 864 1097 972 l 111 972 z m 390 604 l 389 747 l 847 747 b 928 675 900 747 928 726 b 847 604 928 624 900 604 z "},"S":{"ha":1217,"x_min":0,"x_max":0,"o":"m 604 -22 b 1161 296 965 -22 1161 82 b 364 685 1161 763 364 503 b 613 756 364 735 460 756 b 850 647 774 756 850 713 l 1133 647 b 617 994 1133 849 935 994 b 81 676 304 994 81 876 b 879 288 81 192 879 485 b 608 217 879 238 789 217 b 354 325 431 217 354 260 l 56 325 b 604 -22 56 124 263 -22 z "},"T":{"ha":1129,"x_min":0,"x_max":0,"o":"m 424 0 l 704 0 l 704 733 l 1094 733 l 1094 972 l 35 972 l 35 733 l 424 733 z "},"U":{"ha":1283,"x_min":0,"x_max":0,"o":"m 642 -22 b 1172 506 960 -22 1172 92 l 1172 972 l 892 972 l 892 464 b 642 228 892 308 796 228 b 392 464 488 228 392 308 l 392 972 l 111 972 l 111 506 b 642 -22 111 92 324 -22 z "},"V":{"ha":1500,"x_min":0,"x_max":0,"o":"m 1133 972 l 750 204 l 367 972 l 35 972 l 547 0 l 953 0 l 1465 972 z "},"W":{"ha":1779,"x_min":0,"x_max":0,"o":"m 394 0 l 731 0 l 890 486 l 1049 0 l 1385 0 l 1744 972 l 1426 972 l 1225 394 l 1049 972 l 731 972 l 556 394 l 353 972 l 35 972 z "},"X":{"ha":1313,"x_min":0,"x_max":0,"o":"m 35 0 l 418 0 l 653 269 l 888 0 l 1271 0 l 853 483 l 1278 972 l 890 972 l 660 707 l 429 972 l 42 972 l 460 492 z "},"Y":{"ha":1486,"x_min":0,"x_max":0,"o":"m 603 0 l 883 0 l 883 315 l 1451 972 l 1106 972 l 743 540 l 381 972 l 35 972 l 603 314 z "},"Z":{"ha":1226,"x_min":0,"x_max":0,"o":"m 49 0 l 1178 0 l 1178 239 l 535 239 l 1164 792 l 1164 972 l 60 972 l 60 733 l 681 733 l 49 169 z "},"a":{"ha":964,"x_min":0,"x_max":0,"o":"m 314 -22 b 640 235 526 -22 596 58 l 654 235 l 628 0 l 894 0 l 894 392 b 542 717 894 586 800 717 b 143 642 419 717 260 685 l 143 403 b 486 474 236 443 378 474 b 614 408 563 474 614 447 b 56 161 238 385 56 314 b 314 -22 56 0 211 -22 z m 444 167 b 344 217 390 167 344 185 b 614 300 344 269 454 290 b 444 167 617 206 522 167 z "},"b":{"ha":1092,"x_min":0,"x_max":0,"o":"m 688 -22 b 1036 353 897 -22 1036 128 b 685 717 1036 571 896 717 b 356 469 518 717 386 618 l 350 469 l 350 972 l 69 972 l 69 0 l 356 0 l 325 226 l 342 226 b 688 -22 371 78 510 -22 z m 575 203 b 378 350 478 203 378 244 b 575 492 378 454 478 492 b 769 350 671 492 769 454 b 575 203 769 244 671 203 z "},"c":{"ha":874,"x_min":0,"x_max":0,"o":"m 488 -22 b 818 53 625 -22 706 3 l 818 288 b 529 203 742 240 646 203 b 322 347 392 203 322 263 b 525 492 322 432 388 492 b 818 406 643 492 739 453 l 818 642 b 489 717 707 692 614 717 b 56 347 226 717 56 571 b 488 -22 56 125 236 -22 z "},"d":{"ha":1092,"x_min":0,"x_max":0,"o":"m 404 -22 b 750 226 582 -22 721 78 l 767 226 l 736 0 l 1022 0 l 1022 972 l 742 972 l 742 469 l 736 469 b 407 717 706 618 574 717 b 56 353 196 717 56 571 b 404 -22 56 128 194 -22 z m 517 203 b 322 350 421 203 322 244 b 517 492 322 454 421 492 b 714 350 614 492 714 454 b 517 203 714 244 614 203 z "},"e":{"ha":947,"x_min":0,"x_max":0,"o":"m 474 -22 b 861 46 668 -22 753 6 l 861 269 b 543 193 782 236 713 193 b 333 288 425 193 357 226 l 892 288 l 892 401 b 474 717 888 590 722 717 b 56 347 222 717 56 569 b 474 -22 56 125 222 -22 z m 326 385 b 474 492 342 457 403 492 b 621 392 550 492 614 461 z "},"f":{"ha":574,"x_min":0,"x_max":0,"o":"m 121 0 l 401 0 l 401 503 l 539 503 l 539 694 l 401 694 b 492 793 401 772 407 793 b 539 792 506 793 521 793 l 539 963 b 329 986 436 982 388 986 b 121 722 149 986 121 921 l 121 694 l 42 694 l 42 489 l 121 489 z "},"g":{"ha":1103,"x_min":0,"x_max":0,"o":"m 561 -278 b 1033 83 842 -278 1033 -169 l 1033 694 l 751 694 l 774 469 l 750 469 b 421 717 719 618 588 717 b 69 353 210 717 69 571 b 418 6 69 128 208 6 b 758 204 588 6 721 71 l 758 196 b 496 -53 746 -3 693 -53 b 172 -4 349 -53 219 -28 l 172 -237 b 561 -278 281 -264 422 -278 z m 531 203 b 336 350 435 203 336 244 b 531 492 336 454 435 492 b 728 350 628 492 728 454 b 531 203 728 244 628 203 z "},"h":{"ha":1053,"x_min":0,"x_max":0,"o":"m 69 0 l 350 0 l 350 233 b 543 506 350 388 431 506 b 703 278 657 506 703 460 l 703 0 l 983 0 l 983 301 b 704 717 983 647 899 714 b 356 408 485 717 392 636 l 342 408 l 369 972 l 69 972 z "},"i":{"ha":419,"x_min":0,"x_max":0,"o":"m 208 751 b 374 894 318 751 374 790 b 208 1038 374 999 314 1038 b 46 894 103 1038 46 999 b 208 751 46 790 103 751 z m 71 0 l 351 0 l 351 694 l 71 694 z "},"j":{"ha":457,"x_min":0,"x_max":0,"o":"m 222 751 b 388 894 332 751 388 790 b 222 1038 388 999 328 1038 b 60 894 117 1038 60 999 b 222 751 60 790 117 751 z m -54 -278 b 364 -14 215 -278 364 -179 l 364 694 l 83 694 l 83 -14 b -54 -125 83 -75 38 -125 z "},"k":{"ha":1003,"x_min":0,"x_max":0,"o":"m 69 0 l 350 0 l 350 158 l 474 268 l 626 0 l 975 0 l 689 458 l 953 694 l 567 694 l 350 481 l 350 972 l 69 972 z "},"l":{"ha":419,"x_min":0,"x_max":0,"o":"m 69 0 l 350 0 l 350 972 l 69 972 z "},"m":{"ha":1686,"x_min":0,"x_max":0,"o":"m 69 0 l 350 0 l 350 233 b 543 506 350 388 431 506 b 703 278 657 506 703 460 l 703 0 l 983 0 l 983 233 b 1176 506 983 388 1064 506 b 1336 278 1290 506 1336 460 l 1336 0 l 1617 0 l 1617 301 b 1338 717 1617 647 1532 714 b 989 408 1118 717 1025 636 l 975 408 b 704 717 957 660 876 714 b 356 408 485 717 392 636 l 342 408 l 369 694 l 69 694 z "},"n":{"ha":1053,"x_min":0,"x_max":0,"o":"m 69 0 l 350 0 l 350 233 b 543 506 350 388 431 506 b 703 278 657 506 703 460 l 703 0 l 983 0 l 983 301 b 704 717 983 647 899 714 b 356 408 485 717 392 636 l 342 408 l 369 694 l 69 694 z "},"o":{"ha":1003,"x_min":0,"x_max":0,"o":"m 501 -22 b 947 347 769 -22 947 125 b 501 717 947 569 769 717 b 56 347 233 717 56 569 b 501 -22 56 125 233 -22 z m 501 203 b 322 347 394 203 322 261 b 501 492 322 433 394 492 b 681 347 608 492 681 433 b 501 203 681 261 608 203 z "},"p":{"ha":1092,"x_min":0,"x_max":0,"o":"m 688 717 b 342 468 510 717 371 617 l 325 468 l 356 694 l 69 694 l 69 -278 l 350 -278 l 350 225 l 356 225 b 685 -22 386 76 518 -22 b 1036 342 896 -22 1036 124 b 688 717 1036 567 897 717 z m 575 492 b 769 344 671 492 769 450 b 575 203 769 240 671 203 b 378 344 478 203 378 240 b 575 492 378 450 478 492 z "},"q":{"ha":1092,"x_min":0,"x_max":0,"o":"m 404 717 b 56 342 194 717 56 567 b 407 -22 56 124 196 -22 b 736 225 574 -22 706 76 l 742 225 l 742 -278 l 1022 -278 l 1022 694 l 736 694 l 767 468 l 750 468 b 404 717 721 617 582 717 z m 517 492 b 714 344 614 492 714 450 b 517 203 714 240 614 203 b 322 344 421 203 322 240 b 517 492 322 450 421 492 z "},"r":{"ha":751,"x_min":0,"x_max":0,"o":"m 69 0 l 350 0 l 350 233 b 717 478 350 457 467 478 l 717 717 b 356 436 499 717 392 636 l 342 436 l 369 694 l 69 694 z "},"s":{"ha":922,"x_min":0,"x_max":0,"o":"m 458 -22 b 867 217 703 -22 867 46 b 322 450 867 519 322 385 b 506 479 322 471 378 479 b 811 443 610 479 713 464 l 811 678 b 464 717 690 701 547 717 b 56 475 219 717 56 642 b 600 240 56 185 600 331 b 417 207 600 215 544 207 b 86 267 294 207 203 222 l 86 32 b 458 -22 201 -1 351 -22 z "},"t":{"ha":581,"x_min":0,"x_max":0,"o":"m 329 -14 b 539 14 404 -14 467 -6 l 539 181 b 483 178 517 179 499 178 b 401 292 401 178 401 206 l 401 489 l 539 489 l 539 694 l 401 694 l 401 889 l 149 861 l 149 694 l 42 694 l 42 489 l 121 489 l 121 250 b 329 -14 121 51 149 -14 z "},"u":{"ha":1053,"x_min":0,"x_max":0,"o":"m 983 694 l 703 694 l 703 461 b 510 189 703 307 622 189 b 350 417 396 189 350 235 l 350 694 l 69 694 l 69 393 b 349 -22 69 47 154 -19 b 697 286 568 -22 661 58 l 711 286 l 683 0 l 983 0 z "},"v":{"ha":1139,"x_min":0,"x_max":0,"o":"m 401 0 l 738 0 l 1104 694 l 800 694 l 569 257 l 339 694 l 35 694 z "},"w":{"ha":1557,"x_min":0,"x_max":0,"o":"m 332 0 l 640 0 l 775 347 l 917 0 l 1225 0 l 1522 694 l 1232 694 l 1071 311 l 910 694 l 633 694 l 483 319 l 325 694 l 35 694 z "},"x":{"ha":1164,"x_min":0,"x_max":0,"o":"m 35 0 l 386 0 l 568 178 l 750 0 l 1101 0 l 758 335 l 1129 694 l 776 694 l 582 506 l 389 694 l 36 694 l 392 349 z "},"y":{"ha":1119,"x_min":0,"x_max":0,"o":"m 256 -278 l 572 -278 l 1085 694 l 767 694 l 563 306 l 357 694 l 35 694 l 410 15 z "},"z":{"ha":1004,"x_min":0,"x_max":0,"o":"m 42 0 l 949 0 l 949 211 l 528 211 l 963 542 l 963 694 l 53 694 l 53 483 l 479 483 l 42 156 z "},".":{"ha":396,"x_min":0,"x_max":0,"o":"m 197 -14 b 354 135 297 -14 354 40 b 197 283 354 229 293 283 b 42 135 101 283 42 229 b 197 -14 42 40 101 -14 z "},",":{"ha":407,"x_min":0,"x_max":0,"o":"m 42 -235 l 208 -235 l 365 140 l 129 140 z "},"!":{"ha":451,"x_min":0,"x_max":0,"o":"m 100 408 l 353 408 l 367 972 l 86 972 z m 211 -14 b 368 135 311 -14 368 40 b 211 283 368 229 307 283 b 56 135 115 283 56 229 b 211 -14 56 40 115 -14 z "},"?":{"ha":1108,"x_min":0,"x_max":0,"o":"m 401 322 l 681 322 b 1053 703 722 432 1053 376 b 542 993 1053 876 881 993 b 14 594 425 993 14 972 l 317 594 b 535 749 317 694 367 749 b 771 644 685 749 771 724 b 401 322 771 499 401 576 z m 538 -14 b 694 135 638 -14 694 40 b 538 283 694 229 633 283 b 382 135 442 283 382 229 b 538 -14 382 40 442 -14 z "},"@":{"ha":1490,"x_min":0,"x_max":0,"o":"m 744 1007 b 69 447 328 1007 69 783 b 744 -112 69 111 328 -112 b 982 -85 831 -112 910 -103 l 982 88 b 744 53 914 64 835 53 b 256 447 435 53 256 188 b 744 842 256 707 435 842 b 1235 489 1056 842 1235 697 b 1099 210 1235 365 1203 286 l 1099 492 b 808 760 1099 651 1021 760 b 481 697 707 760 576 733 l 481 501 b 763 560 557 533 674 560 b 868 506 825 560 868 538 b 408 301 558 486 408 428 b 621 151 408 169 536 151 b 889 363 796 151 853 218 l 900 363 l 879 169 l 1193 169 b 1421 489 1354 229 1421 354 b 744 1007 1421 774 1163 1007 z m 728 307 b 646 347 683 307 646 321 b 868 417 646 392 736 408 b 728 307 869 339 792 307 z "},"&":{"ha":1361,"x_min":0,"x_max":0,"o":"m 507 -17 b 872 65 619 -17 750 8 l 940 0 l 1354 0 l 1111 232 b 1239 406 1160 282 1203 339 l 1042 614 b 896 438 1011 565 960 500 l 626 694 l 1011 694 l 1011 972 l 143 972 l 143 764 l 369 547 b 56 258 200 544 56 428 b 507 -17 56 28 342 -17 z m 517 250 b 258 385 361 250 258 292 b 433 486 258 439 326 485 l 653 276 b 517 250 608 260 563 250 z "}}}
